<mxfile host="Electron" modified="2024-01-25T09:49:16.574Z" agent="Mozilla/5.0 (Macintosh; Intel Mac OS X 10_15_7) AppleWebKit/537.36 (KHTML, like Gecko) draw.io/22.1.16 Chrome/120.0.6099.109 Electron/28.1.0 Safari/537.36" etag="0EfvdhhL3_2ZMJG5ljzb" version="22.1.16" type="device">
  <diagram name="Page-1" id="5QbuTibJrH0o45LmCL0h">
    <mxGraphModel dx="2954" dy="1214" grid="1" gridSize="10" guides="1" tooltips="1" connect="1" arrows="1" fold="1" page="1" pageScale="1" pageWidth="827" pageHeight="1169" math="0" shadow="0">
      <root>
        <mxCell id="0" />
        <mxCell id="1" parent="0" />
        <mxCell id="L6YCubA5sWstt0FbDfCC-21" value="" style="edgeStyle=orthogonalEdgeStyle;rounded=0;orthogonalLoop=1;jettySize=auto;html=1;entryX=0.25;entryY=1;entryDx=0;entryDy=0;exitX=0.25;exitY=0;exitDx=0;exitDy=0;" edge="1" parent="1" source="L6YCubA5sWstt0FbDfCC-1" target="L6YCubA5sWstt0FbDfCC-17">
          <mxGeometry relative="1" as="geometry" />
        </mxCell>
        <mxCell id="L6YCubA5sWstt0FbDfCC-22" value="Register VPs" style="edgeLabel;html=1;align=center;verticalAlign=middle;resizable=0;points=[];" vertex="1" connectable="0" parent="L6YCubA5sWstt0FbDfCC-21">
          <mxGeometry x="-0.3" y="-2" relative="1" as="geometry">
            <mxPoint y="-2" as="offset" />
          </mxGeometry>
        </mxCell>
        <mxCell id="L6YCubA5sWstt0FbDfCC-1" value="Discovery Client&lt;br&gt;&lt;span style=&quot;font-weight: normal;&quot;&gt;[ Nuts Node ]&lt;br&gt;&lt;br&gt;Synchronizes local copy of Discovery Service, registers VPs at Discovery Service&lt;br&gt;&lt;/span&gt;" style="rounded=0;whiteSpace=wrap;html=1;fillColor=#dae8fc;strokeColor=#6c8ebf;fontStyle=1" vertex="1" parent="1">
          <mxGeometry x="45" y="230" width="200" height="90" as="geometry" />
        </mxCell>
        <mxCell id="L6YCubA5sWstt0FbDfCC-12" value="&lt;span style=&quot;&quot;&gt;Vendor component&lt;br&gt;&lt;/span&gt;" style="rounded=0;whiteSpace=wrap;html=1;fillColor=#ffe6cc;strokeColor=#d79b00;fontStyle=1" vertex="1" parent="1">
          <mxGeometry x="518" y="440" width="170" height="30" as="geometry" />
        </mxCell>
        <mxCell id="L6YCubA5sWstt0FbDfCC-13" value="Nuts OSS component" style="rounded=0;whiteSpace=wrap;html=1;fillColor=#dae8fc;strokeColor=#6c8ebf;fontStyle=1" vertex="1" parent="1">
          <mxGeometry x="518" y="480" width="170" height="30" as="geometry" />
        </mxCell>
        <mxCell id="L6YCubA5sWstt0FbDfCC-15" value="&lt;b&gt;Legend&lt;/b&gt;" style="text;strokeColor=none;fillColor=none;align=left;verticalAlign=middle;spacingLeft=4;spacingRight=4;overflow=hidden;points=[[0,0.5],[1,0.5]];portConstraint=eastwest;rotatable=0;whiteSpace=wrap;html=1;fontStyle=4" vertex="1" parent="1">
          <mxGeometry x="518" y="410" width="80" height="30" as="geometry" />
        </mxCell>
        <mxCell id="L6YCubA5sWstt0FbDfCC-17" value="Discovery Server&lt;br&gt;&lt;span style=&quot;font-weight: normal;&quot;&gt;[ Nuts Node ]&lt;br&gt;&lt;br&gt;Hosts Discovery Services,&lt;br&gt;accepts registrations (VPs) and services the list of VPs&lt;br&gt;&lt;/span&gt;" style="rounded=0;whiteSpace=wrap;html=1;fillColor=#dae8fc;strokeColor=#6c8ebf;fontStyle=1" vertex="1" parent="1">
          <mxGeometry x="45" y="40" width="200" height="110" as="geometry" />
        </mxCell>
        <mxCell id="L6YCubA5sWstt0FbDfCC-27" value="" style="edgeStyle=orthogonalEdgeStyle;rounded=0;orthogonalLoop=1;jettySize=auto;html=1;exitX=0.5;exitY=0;exitDx=0;exitDy=0;entryX=1;entryY=0.5;entryDx=0;entryDy=0;" edge="1" parent="1" source="L6YCubA5sWstt0FbDfCC-18" target="L6YCubA5sWstt0FbDfCC-1">
          <mxGeometry relative="1" as="geometry">
            <mxPoint x="390" y="300" as="targetPoint" />
          </mxGeometry>
        </mxCell>
        <mxCell id="L6YCubA5sWstt0FbDfCC-36" value="Search for registrations on&lt;br&gt;Discovery Service" style="edgeLabel;html=1;align=center;verticalAlign=middle;resizable=0;points=[];" vertex="1" connectable="0" parent="L6YCubA5sWstt0FbDfCC-27">
          <mxGeometry x="-0.3029" y="1" relative="1" as="geometry">
            <mxPoint as="offset" />
          </mxGeometry>
        </mxCell>
        <mxCell id="L6YCubA5sWstt0FbDfCC-18" value="XIS&lt;br&gt;&lt;br&gt;&lt;span style=&quot;font-weight: 400;&quot;&gt;Manages medical data, starts data exchanges with external care organizations&lt;/span&gt;" style="rounded=0;whiteSpace=wrap;html=1;fillColor=#ffe6cc;strokeColor=#d79b00;fontStyle=1;" vertex="1" parent="1">
          <mxGeometry x="195" y="410" width="180" height="100" as="geometry" />
        </mxCell>
        <mxCell id="L6YCubA5sWstt0FbDfCC-25" value="Manage DIDs and their&lt;br&gt;Discovery Service registration" style="edgeStyle=orthogonalEdgeStyle;rounded=0;orthogonalLoop=1;jettySize=auto;html=1;entryX=0.25;entryY=1;entryDx=0;entryDy=0;" edge="1" parent="1" source="L6YCubA5sWstt0FbDfCC-20" target="L6YCubA5sWstt0FbDfCC-1">
          <mxGeometry relative="1" as="geometry" />
        </mxCell>
        <mxCell id="L6YCubA5sWstt0FbDfCC-20" value="CRM&lt;br&gt;&lt;br&gt;&lt;span style=&quot;font-weight: normal;&quot;&gt;Manages care organization DIDs&lt;/span&gt;" style="rounded=0;whiteSpace=wrap;html=1;fillColor=#ffe6cc;strokeColor=#d79b00;fontStyle=1;" vertex="1" parent="1">
          <mxGeometry x="30" y="410" width="130" height="100" as="geometry" />
        </mxCell>
        <mxCell id="L6YCubA5sWstt0FbDfCC-23" value="" style="edgeStyle=orthogonalEdgeStyle;rounded=0;orthogonalLoop=1;jettySize=auto;html=1;exitX=0.75;exitY=0;exitDx=0;exitDy=0;entryX=0.75;entryY=1;entryDx=0;entryDy=0;" edge="1" parent="1" source="L6YCubA5sWstt0FbDfCC-1" target="L6YCubA5sWstt0FbDfCC-17">
          <mxGeometry relative="1" as="geometry">
            <mxPoint x="195" y="170" as="sourcePoint" />
            <mxPoint x="335" y="200" as="targetPoint" />
          </mxGeometry>
        </mxCell>
        <mxCell id="L6YCubA5sWstt0FbDfCC-24" value="Synchronize VPs with server" style="edgeLabel;html=1;align=center;verticalAlign=middle;resizable=0;points=[];" vertex="1" connectable="0" parent="L6YCubA5sWstt0FbDfCC-23">
          <mxGeometry x="-0.3" y="-2" relative="1" as="geometry">
            <mxPoint x="8" y="-2" as="offset" />
          </mxGeometry>
        </mxCell>
        <mxCell id="L6YCubA5sWstt0FbDfCC-32" value="" style="edgeStyle=orthogonalEdgeStyle;rounded=0;orthogonalLoop=1;jettySize=auto;html=1;" edge="1" parent="1">
          <mxGeometry relative="1" as="geometry">
            <mxPoint x="520" y="530" as="sourcePoint" />
            <mxPoint x="580" y="530" as="targetPoint" />
            <Array as="points">
              <mxPoint x="570" y="529" />
            </Array>
          </mxGeometry>
        </mxCell>
        <mxCell id="L6YCubA5sWstt0FbDfCC-33" value="Invocation" style="text;html=1;strokeColor=none;fillColor=none;align=center;verticalAlign=middle;whiteSpace=wrap;rounded=0;" vertex="1" parent="1">
          <mxGeometry x="587" y="516" width="73" height="30" as="geometry" />
        </mxCell>
        <mxCell id="L6YCubA5sWstt0FbDfCC-35" value="Search for care organization supporting&lt;br&gt;a particular use case" style="edgeStyle=orthogonalEdgeStyle;rounded=0;orthogonalLoop=1;jettySize=auto;html=1;" edge="1" parent="1" source="L6YCubA5sWstt0FbDfCC-34" target="L6YCubA5sWstt0FbDfCC-18">
          <mxGeometry relative="1" as="geometry" />
        </mxCell>
        <mxCell id="L6YCubA5sWstt0FbDfCC-34" value="&lt;b&gt;Care Professional&lt;/b&gt;" style="shape=umlActor;verticalLabelPosition=bottom;verticalAlign=top;html=1;outlineConnect=0;" vertex="1" parent="1">
          <mxGeometry x="270" y="580" width="30" height="60" as="geometry" />
        </mxCell>
        <mxCell id="L6YCubA5sWstt0FbDfCC-38" value="validates VPs&lt;br&gt;according to" style="edgeStyle=orthogonalEdgeStyle;rounded=0;orthogonalLoop=1;jettySize=auto;html=1;exitX=1;exitY=0.5;exitDx=0;exitDy=0;entryX=0;entryY=0.5;entryDx=0;entryDy=0;entryPerimeter=0;" edge="1" parent="1" source="L6YCubA5sWstt0FbDfCC-17" target="L6YCubA5sWstt0FbDfCC-37">
          <mxGeometry relative="1" as="geometry">
            <mxPoint x="310" y="200" as="targetPoint" />
          </mxGeometry>
        </mxCell>
        <mxCell id="L6YCubA5sWstt0FbDfCC-40" value="validates VPs&lt;br style=&quot;border-color: var(--border-color);&quot;&gt;according to" style="edgeStyle=orthogonalEdgeStyle;rounded=0;orthogonalLoop=1;jettySize=auto;html=1;exitX=1;exitY=0.25;exitDx=0;exitDy=0;entryX=0.5;entryY=1;entryDx=0;entryDy=0;entryPerimeter=0;" edge="1" parent="1" source="L6YCubA5sWstt0FbDfCC-1" target="L6YCubA5sWstt0FbDfCC-37">
          <mxGeometry relative="1" as="geometry">
            <mxPoint x="460" y="320" as="targetPoint" />
          </mxGeometry>
        </mxCell>
        <mxCell id="L6YCubA5sWstt0FbDfCC-37" value="&lt;b&gt;Discovery Service Definitions&lt;/b&gt;&lt;br&gt;&lt;br&gt;Used to validate Discovery Service registrations (VPs)&lt;br&gt;&lt;br&gt;Describes Presentation Definition (VCs) required for registrations" style="shape=note;whiteSpace=wrap;html=1;backgroundOutline=1;darkOpacity=0.05;" vertex="1" parent="1">
          <mxGeometry x="360" y="41.25" width="180" height="107.5" as="geometry" />
        </mxCell>
        <mxCell id="L6YCubA5sWstt0FbDfCC-41" value="&lt;b&gt;Configuration artifact&lt;/b&gt;" style="shape=note;whiteSpace=wrap;html=1;backgroundOutline=1;darkOpacity=0.05;size=19;" vertex="1" parent="1">
          <mxGeometry x="518" y="546" width="180" height="34" as="geometry" />
        </mxCell>
        <mxCell id="L6YCubA5sWstt0FbDfCC-50" value="" style="group" vertex="1" connectable="0" parent="1">
          <mxGeometry x="650" y="63" width="71.5" height="81" as="geometry" />
        </mxCell>
        <mxCell id="L6YCubA5sWstt0FbDfCC-42" value="&lt;b&gt;Use Case Governing Body&lt;/b&gt;&lt;br&gt;&lt;br&gt;Determines which credentials parties must&lt;br&gt;own to be eligible for registration&lt;br&gt;on a Discovery Service" style="shape=umlActor;verticalLabelPosition=bottom;verticalAlign=top;html=1;outlineConnect=0;" vertex="1" parent="L6YCubA5sWstt0FbDfCC-50">
          <mxGeometry x="20" y="21" width="30" height="60" as="geometry" />
        </mxCell>
        <mxCell id="L6YCubA5sWstt0FbDfCC-43" value="" style="shape=umlActor;verticalLabelPosition=bottom;verticalAlign=top;html=1;outlineConnect=0;" vertex="1" parent="L6YCubA5sWstt0FbDfCC-50">
          <mxGeometry x="41.5" y="8.75" width="30" height="60" as="geometry" />
        </mxCell>
        <mxCell id="L6YCubA5sWstt0FbDfCC-46" value="" style="shape=umlActor;verticalLabelPosition=bottom;verticalAlign=top;html=1;outlineConnect=0;" vertex="1" parent="L6YCubA5sWstt0FbDfCC-50">
          <mxGeometry width="30" height="60" as="geometry" />
        </mxCell>
        <mxCell id="L6YCubA5sWstt0FbDfCC-51" value="" style="edgeStyle=orthogonalEdgeStyle;rounded=0;orthogonalLoop=1;jettySize=auto;html=1;" edge="1" parent="1" source="L6YCubA5sWstt0FbDfCC-46" target="L6YCubA5sWstt0FbDfCC-37">
          <mxGeometry relative="1" as="geometry" />
        </mxCell>
        <mxCell id="L6YCubA5sWstt0FbDfCC-52" value="Defines" style="edgeLabel;html=1;align=center;verticalAlign=middle;resizable=0;points=[];" vertex="1" connectable="0" parent="L6YCubA5sWstt0FbDfCC-51">
          <mxGeometry x="0.2346" y="1" relative="1" as="geometry">
            <mxPoint x="12" y="-2" as="offset" />
          </mxGeometry>
        </mxCell>
      </root>
    </mxGraphModel>
  </diagram>
</mxfile>
